<?xml version="1.0" encoding="utf-8" ?>
<svg xmlns="http://www.w3.org/2000/svg" xmlns:xlink="http://www.w3.org/1999/xlink" width="3840" height="2160">
	<path fill="#3C3C3C" d="M1713.55 1079.95C1718.47 1079.89 1723.59 1079.75 1728.32 1080.63C1737.82 1082.39 1744.96 1087.04 1749.35 1091.93C1758.95 1102.65 1759.12 1119.45 1751.51 1130.61C1746.36 1138.16 1739.78 1141.89 1726.76 1145.06C1722.03 1145.17 1717.59 1145.19 1712.98 1144.47C1703.18 1142.96 1695.91 1138.32 1691.47 1133.38C1682.22 1123.1 1682.17 1106.83 1688.8 1096C1693.61 1088.13 1700.51 1083.69 1713.55 1079.95Z"/>
	<path fill="#3C3C3C" d="M2327.25 1188.96Q2331.72 1188.91 2336.19 1188.91C2356.93 1188.9 2373.75 1192.29 2388.33 1200.88C2433.86 1227.73 2428.25 1277.57 2428.05 1312.01L2383.07 1312.01C2383.49 1291.57 2386.43 1253.58 2361.19 1237.35C2352.87 1232 2339.37 1228.92 2326.93 1228.54C2313.87 1228.14 2302.59 1230.25 2293.21 1235.41C2280.05 1242.67 2273.35 1252.81 2269.52 1262.74C2261.48 1283.58 2263.7 1306.45 2263.7 1327.69L2263.84 1403.26L2263.84 1469.06L2219.08 1469.06L2219.08 1193.97L2263.84 1193.97Q2263.4 1219.51 2264.45 1245.04L2260.88 1244.23L2265.21 1244.54C2262.91 1234.54 2273.2 1217.74 2281.75 1208.89C2291.73 1198.56 2304.9 1192.52 2324.88 1189.33L2327.25 1188.96Z"/>
	<path fill="#3C3C3C" d="M1614.91 1193.97L1747.79 1193.97L1747.79 1428.03L1841.08 1428.03L1841.08 1469.06L1744.69 1469.06L1605 1469.06L1605 1428.03L1702.89 1428.03L1702.89 1235.02L1614.91 1235.02L1614.91 1193.97Z"/>
	<path fill="#60E861" d="M2757.28 1115.99L2896.91 1115.99L2896.97 1311.97C2896.95 1342.21 2892.96 1381.07 2897.96 1410.13C2899.33 1418.08 2901.95 1428.61 2912.14 1434.54C2927.77 1443.64 2994.91 1440.19 3016.91 1440.08L3016.91 1480.85L2944.57 1481.1C2920.58 1481.09 2903.44 1480.09 2885.93 1469.83C2866.44 1458.42 2858.07 1440.93 2853.89 1425.68C2848.03 1404.23 2851.89 1363.32 2851.89 1340.41L2851.98 1156.99L2757.28 1156.99L2757.28 1115.99Z"/>
	<path fill="#60E861" d="M3482.42 1201.54L3483.99 1201.44C3508.91 1200.04 3532.01 1202.42 3551.49 1211.89C3593.7 1232.41 3600.08 1266.86 3604.46 1296L3558.77 1296C3557.3 1286.64 3555.54 1276.92 3550.41 1267.94C3544.77 1258.07 3534.88 1249.08 3517.86 1244.39C3506.09 1241.15 3492.41 1239.86 3479.81 1242.38C3463.68 1245.62 3452.69 1254.07 3445.45 1262.41C3439.09 1269.74 3435.65 1277.9 3433.62 1285.95C3429.02 1304.25 3430.82 1323.57 3430.83 1342.02C3430.84 1360.46 3429.24 1379.64 3433.02 1397.98C3434.75 1406.34 3437.87 1415 3443.2 1422.89C3448.96 1431.39 3462.9 1439.98 3477.96 1443.47Q3479.08 1443.73 3480.23 1443.96Q3481.38 1444.18 3482.54 1444.38Q3483.71 1444.57 3484.89 1444.73Q3486.07 1444.89 3487.26 1445.02Q3488.46 1445.15 3489.66 1445.24Q3490.87 1445.33 3492.08 1445.39Q3493.29 1445.45 3494.5 1445.48Q3495.72 1445.5 3496.93 1445.5Q3498.15 1445.49 3499.36 1445.44Q3500.57 1445.4 3501.78 1445.32Q3502.99 1445.25 3504.19 1445.13Q3505.38 1445.02 3506.57 1444.88Q3507.76 1444.73 3508.93 1444.55Q3510.11 1444.38 3511.26 1444.16Q3512.42 1443.95 3513.55 1443.71Q3514.69 1443.47 3515.8 1443.19C3534.82 1438.45 3543.2 1429.2 3550.37 1418.92C3554.45 1410.93 3553.81 1400.91 3559.9 1393.73C3568.84 1389.11 3592.36 1390.96 3604.34 1391.09C3601.06 1416.72 3595.82 1442.13 3569.25 1463.85C3554.91 1475.57 3537.75 1482.68 3512.64 1485.1C3488.15 1487.46 3464.24 1485.07 3444.02 1476.66C3410.54 1462.74 3396.1 1436.91 3390.13 1414.76C3384.27 1393.04 3386.15 1370.76 3386.08 1348.86C3385.96 1307.61 3377.4 1256.58 3424.16 1221.49C3438.65 1210.62 3458.4 1203.5 3482.42 1201.54Z"/>
	<path fill="#3C3C3C" d="M2004.29 1189.12C2030.93 1188.45 2052.75 1190.09 2073.65 1200.47C2114.79 1220.9 2122.06 1254.99 2125.24 1283.89L2079.65 1283.89C2078.39 1276.1 2076.91 1268.2 2073.71 1260.58C2069.35 1250.23 2058.84 1238.64 2041.76 1233.12C2030.01 1229.32 2014.07 1228.16 2001.18 1230.66C1985.54 1233.69 1974.29 1241.53 1967.18 1249.62C1960.56 1257.17 1956.88 1265.53 1954.87 1273.84C1948.45 1300.42 1947.36 1383.88 1962.6 1408.21C1968.39 1417.44 1981.12 1427.34 1997.59 1431.23C2009.83 1434.11 2025.79 1434.35 2037.93 1431.15C2056.2 1426.34 2064.85 1416.31 2071.5 1406.26C2076.04 1397.35 2077.84 1388.23 2079.95 1379.07L2125.16 1379.07C2123.15 1403.6 2117.17 1428.22 2093.33 1449.35C2079.27 1461.81 2064.62 1469.08 2038.46 1472.3C2016.02 1475.07 1991.93 1475.12 1972.08 1467.75C1937.13 1454.77 1920.05 1431.03 1912.68 1408.74C1904.43 1383.78 1906.94 1358 1906.87 1332.72C1906.79 1307.18 1904.16 1280.76 1912.3 1255.53C1917.26 1240.15 1926.25 1224.5 1942.34 1211.6C1957.66 1199.32 1977.84 1191.68 2004.29 1189.12Z"/>
	<path fill="#60E861" d="M3178.46 1201.49C3180.73 1201.3 3181.1 1201.25 3183.74 1201.17C3209.19 1200.42 3231.56 1203.85 3250.14 1214.11C3311.55 1248.04 3300.21 1310.97 3300 1354.98L3127.68 1354.98C3127.3 1377.67 3124.42 1406.92 3144.17 1427.39C3151.83 1435.34 3163.57 1443.22 3179.63 1445.76C3192.53 1447.81 3206.7 1446.57 3218.32 1442.92C3240.34 1435.99 3247.57 1423.98 3253.58 1411.12L3289.22 1411.12C3292.65 1411.07 3293.35 1411.12 3296.66 1411.95C3296.9 1412.44 3297.16 1412.92 3297.37 1413.41C3301.46 1422.88 3283.29 1450.4 3273.83 1459.33C3260.68 1471.75 3238.47 1481.76 3213.24 1485.03C3190.31 1488.01 3166.07 1485.81 3146.49 1478.39C3111.6 1465.15 3097.3 1440.64 3090.08 1418.46C3080.39 1388.7 3080.33 1298.35 3090.05 1268.39C3095.18 1252.59 3104.47 1236.5 3120.93 1223.21C3134.86 1211.97 3154.09 1203.82 3178.46 1201.49ZM3191.91 1238.81C3176.78 1239 3165.25 1241.57 3154.91 1247.95C3126.79 1265.3 3127.21 1298.06 3127.68 1320.23L3194.06 1320.23L3256.4 1320.23C3256.04 1297.64 3257.47 1264.36 3227.25 1247.12C3217.19 1241.38 3206.03 1238.94 3191.91 1238.81Z"/>
	<path fill="#3C3C3C" d="M1299.17 1104.11L1365.87 1104.11C1383.37 1155.67 1396.13 1207.95 1411.99 1259.69C1421.85 1230.28 1430.37 1200.68 1439.45 1171.19C1446.31 1148.9 1454.24 1126.54 1459.46 1104.11L1526.79 1104.11L1526.79 1469.06L1483.07 1469.06L1488.55 1126.05C1479.77 1140.47 1475.77 1164.32 1470.85 1180.04L1431.52 1305.88L1390.92 1305.87C1387.33 1288.8 1381.03 1271.72 1375.86 1254.77Q1362.82 1211.29 1348.88 1167.89C1345.66 1157.99 1343.95 1141 1338 1132.29L1336.4 1134.84C1339.91 1143.28 1337.52 1151.36 1338.22 1159.85C1339.85 1179.64 1341.59 1199.32 1342.13 1219.19C1344.39 1302.44 1342.85 1385.8 1342.79 1469.06L1299.17 1469.06L1299.17 1104.11Z"/>
	<path fill="#3C3C3C" d="M2599.97 1190.08C2622.67 1189.65 2641.55 1190.26 2660.86 1197.92C2694.29 1211.19 2709.1 1236.61 2715.72 1258.26C2722.4 1280.12 2720.89 1302.36 2720.95 1324.45C2721.06 1365.65 2728.82 1416.57 2683.47 1451.91C2669.09 1463.11 2650.08 1470.73 2625.63 1472.94C2602.89 1473.41 2583.48 1472.5 2564.33 1464.68C2530.7 1450.94 2516.12 1425.01 2509.82 1402.97C2501.1 1372.45 2501.31 1283.6 2511.82 1253.53C2517.07 1238.51 2526.22 1223.14 2542.51 1210.71C2556.76 1199.83 2576.04 1192.23 2599.97 1190.08ZM2613.95 1230.5C2597.75 1231.15 2585.52 1233.66 2574.8 1240.84C2563.12 1248.65 2557.47 1259.34 2554.25 1269.24C2546.78 1292.16 2547.47 1361.02 2552.01 1385.11C2554.48 1398.26 2561.65 1417.63 2581.22 1426.01C2590.76 1430.1 2599.61 1431.22 2610.92 1432.4C2611.18 1432.43 2611.38 1432.54 2611.61 1432.61C2627.63 1432 2639.99 1429.68 2650.68 1422.59C2662.29 1414.88 2667.82 1405.19 2671.2 1395.44C2679.24 1372.19 2678.57 1301.24 2673.77 1277.02C2671.19 1264 2663.85 1244.73 2644.02 1236.6C2634.61 1232.74 2625.45 1231.24 2614.19 1230.56C2614.1 1230.55 2614.03 1230.52 2613.95 1230.5Z"/>
	<path fill="#3C3C3C" d="M828.209 740.125L828.067 681.71C828.052 669.354 826.717 656.47 830.184 644.224C832.473 636.136 836.843 626.771 846.504 620.494C851.956 616.952 859.251 614.646 867.678 614.557C876.593 614.464 884.72 616.955 890.883 620.435C899.844 625.494 905.405 632.517 908.106 639.42C913.546 653.318 911.316 668.913 911.249 683.074L911.085 740.125Q931.863 740.111 952.64 739.959C972.527 739.864 988.981 741.022 1003.52 749.452C1040.46 770.882 1036.09 807.664 1036.06 835.105L1035.92 879.963C1066.12 880.047 1113.36 877.787 1141.55 879.828C1152.47 880.618 1162.78 885.737 1168.7 890.707C1183.31 902.977 1185.44 922.545 1179.46 936.729C1174.49 948.54 1165.53 956.537 1147.27 962.962L1035.92 962.962L1035.92 1075.94C1066.15 1075.95 1119.59 1073.31 1146.66 1077.33C1157.93 1079.01 1165.26 1082.12 1170.92 1087.89C1184.31 1101.54 1185.19 1122.79 1177 1137.48C1171.44 1147.44 1163.42 1154.01 1147.13 1159.04L1035.92 1159.04L1035.92 1275.06L1147.62 1275.06C1156.21 1277.78 1163.65 1281.38 1168.79 1286.14C1183.82 1300.04 1185.9 1319.48 1178.21 1335C1173.02 1345.5 1164.17 1352.64 1147.35 1358.01L1035.92 1358.01L1036.08 1415.46C1035.84 1436.39 1030.27 1464.15 1001.53 1479.39C978.723 1491.48 940.128 1488.28 911.085 1488.05C911.238 1520.68 912.7 1553.5 911.251 1586.1C910.665 1599.27 906.634 1615.42 888.23 1624.65C882.194 1627.68 875.662 1629.81 867.273 1629.31C856.909 1628.69 849.161 1623.89 843.126 1619.61C836.238 1612.99 832.179 1606.38 830.089 1598.84C826.195 1584.79 827.983 1569.92 828.04 1555.72L828.209 1488.05L714.78 1488.05L714.963 1556.62C714.989 1570.78 716.952 1585.81 712.739 1599.8C710.344 1607.76 705.327 1616.34 696.095 1622.61C690.664 1626.3 683.557 1628.93 674.892 1629.18C666.398 1629.43 659.137 1627.55 653.265 1624.15C642.644 1618.01 637.13 1608.72 634.396 1600.42C629.718 1586.22 631.752 1570.7 631.764 1556.29L631.952 1488.05L515.826 1488.05L516.016 1557.09C516.029 1571.12 517.999 1586.19 513.74 1600.04C511.238 1608.17 505.938 1616.96 496.171 1623.22C490.587 1626.8 483.455 1629.13 474.853 1629.21C467.076 1629.28 460.454 1627.51 454.931 1624.49C444.056 1618.53 438.412 1609.06 435.614 1600.81C430.799 1586.62 432.865 1571.11 432.878 1556.71L433.068 1488.05C403.503 1488.06 361.862 1491.89 338.673 1479.35C293.564 1454.96 305.041 1391.49 305.22 1358.01L194.088 1357.92C187.891 1355.11 182.075 1352.31 177.549 1348.58C162.366 1336.09 158.504 1318.67 163.591 1303.96C168.017 1291.17 177.155 1282.45 196.004 1275.06L305.22 1275.06L305.22 1159.04C278.543 1158.92 220.547 1161.69 197.809 1158.35C192.354 1157.55 187.329 1155.83 183.249 1153.67C167.765 1145.46 162.394 1131.18 161.914 1119.56C161.394 1107.01 166.22 1090.79 182.761 1081.75C186.862 1079.52 191.842 1077.71 197.383 1076.85C219.375 1073.46 278.954 1075.88 305.22 1075.94L305.22 962.962L197.333 962.962C191.961 961.244 186.832 959.495 182.545 956.951C166.999 947.728 161.501 932.674 161.715 920.269C161.921 908.336 166.887 894.125 182.921 885.685C187.772 883.131 194.325 880.901 200.859 880.104C219.17 877.871 281.933 879.916 305.22 879.963L305.032 832.601C304.965 805.682 300.505 769.893 337.647 749.044C360.866 736.009 402.847 739.942 433.068 740.125C433.164 715.335 427.465 657.579 437.517 637.344C442.962 626.385 451.694 619.254 469.425 613.798C479.939 613.964 487.168 615.333 494.849 619.554C505.28 625.288 510.666 633.92 513.373 641.797C517.808 654.706 516.068 668.638 516.048 681.748L515.826 740.124L631.952 740.125C632.111 714.53 625.207 654.04 638.883 633.215C645.822 622.648 655.6 617.48 673.012 612.76C680.596 614.476 687.468 616.175 693.267 619.517C703.632 625.49 709.34 633.525 712.335 641.577C717.128 654.467 715.066 668.731 715.013 681.854L714.78 740.125L828.209 740.125ZM445.936 826.935C417.881 835.391 405.07 847.416 395.968 864.079C384.368 885.315 389.752 957.573 389.743 985.704L389.772 1172.55L389.729 1284.18C389.723 1303.44 388.095 1323.24 390.039 1342.46C391.337 1355.3 397.204 1369.49 408.261 1380.83C416.277 1389.05 428.713 1397.08 445.176 1399.93C453.716 1401.42 874.537 1402.65 892.154 1400.5C912.806 1396.4 925 1389.29 934.372 1378.16C943.59 1367.22 948.414 1356.28 949.981 1344.26C953.186 1319.67 950.959 1294.37 950.959 1269.67L950.901 1130.58L950.957 973.16C951.032 945.081 953.19 916.418 950.603 888.399C949.6 877.532 946.265 866.67 939.608 856.428C932.896 846.103 921.51 834.419 902.837 829.818C895.228 827.944 886.77 827.079 878.507 826.832C835.108 825.536 790.312 827.027 746.753 826.989L445.936 826.935Z"/>
	<path fill="#3C3C3C" d="M506.126 948.08L838.048 948.08L838.048 1295.05L506.126 1295.05L506.126 948.08Z"/>
</svg>
